<svg xmlns="http://www.w3.org/2000/svg" viewBox="0 0 512 512">
  <defs>
    <linearGradient id="g1" x1="0%" y1="0%" x2="100%" y2="100%">
      <stop offset="0%" style="stop-color:#2563eb;stop-opacity:1" />
      <stop offset="100%" style="stop-color:#06b6d4;stop-opacity:1" />
    </linearGradient>
  </defs>
  <path fill="url(#g1)" d="M256,48C141.31,48,48,141.31,48,256S141.31,464,256,464,464,370.69,464,256,370.69,48,256,48Zm0,368c-88.22,0-160-71.78-160-160S167.78,96,256,96a157.65,157.65,0,0,1,64.24,13.62L277,157a95.82,95.82,0,0,0-21-2.31c-52.94,0-96,43.06-96,96s43.06,96,96,96,96-43.06,96-96a94.75,94.75,0,0,0-5.83-32.9l46.12-46.12A159.26,159.26,0,0,1,416,256C416,344.22,344.22,416,256,416Z"/>
  <path fill="#ffffff" d="M304,184a48,48,0,1,0,48,48A48,48,0,0,0,304,184Zm0,64a16,16,0,1,1,16-16A16,16,0,0,1,304,248Z"/>
  <path fill="rgba(255,255,255,0.5)" d="M180,240h200v2H180z" />
  <path fill="rgba(255,255,255,0.3)" d="M180,260h160v2H180z" />
  <path fill="rgba(255,255,255,0.3)" d="M180,220h120v2H180z" />
</svg>
